<svg width="42" height="32" xmlns="http://www.w3.org/2000/svg">

 <g>
  <title>background</title>
  <rect fill="none" id="canvas_background" height="34" width="44" y="-1" x="-1"/>
 </g>
 <g>
  <title>Layer 1</title>
  <path id="svg_4" fill="#FFFFFF" d="m14.055661,22.189418l0.422,-0.189l-0.422,0.141l0,0.048zm-9.416,-0.663c0,0 -2.379,0.767 -3.779,1.784c-1.515,1.104 -0.956,3.011 2.362,3.924c3.563,1.157 7.181,1.38 10.577,0.838c0.221,-0.039 0.037,0.151 0.256,0.118l0,-4.001l-2.726,1.277c-1.251,0.446 -3.095,0.537 -4.111,0.208c-1.015,-0.328 -0.827,-0.947 0.428,-1.388l6.409,-2.145l0,-3.952l-9.416,3.337zm21.416,-11.338l0,8.001c4.552,2.031 8.129,-0.802 8.129,-6.175c0,-5.508 -2.106,-7.313 -8.304,-9.276c-2.438,-0.759 -6.719,-2.019 -9.825,-2.549l0,30l8,2l0,-24c0,-1.178 0.048,-1.88 0.953,-1.608c1.201,0.305 1.047,2.435 1.047,3.607zm13.049,11.687c-2.694,-1.042 -5.51,-1.398 -8.53,-1.085c-3.017,0.316 -4.519,1.399 -4.519,1.399l0,4l5.781,-2.628c1.17,-0.433 2.901,-0.531 3.855,-0.209c0.953,0.323 0.772,0.934 -0.402,1.357l-9.234,3.481l0,3.999l12.992,-5.177c0,0 1.891,-0.71 2.667,-1.705c0.771,-0.999 0.427,-2.445 -2.61,-3.432z"/>
 </g>
</svg>