<svg width="24" height="24" xmlns="http://www.w3.org/2000/svg">

 <g>
  <title>background</title>
  <rect fill="none" id="canvas_background" height="402" width="582" y="-1" x="-1"/>
 </g>
 <g>
  <title>Layer 1</title>
  <path id="svg_2" fill="#ffffff" d="m10.5,1l-6,0c-1.92969,0 -3.5,1.57031 -3.5,3.5l0,15c0,1.92969 1.57031,3.5 3.5,3.5l6,0c0.27637,0 0.5,-0.22363 0.5,-0.5l0,-21c0,-0.27637 -0.22363,-0.5 -0.5,-0.5zm-4.5,9c-1.37891,0 -2.5,-1.12158 -2.5,-2.5s1.12109,-2.5 2.5,-2.5s2.5,1.12158 2.5,2.5s-1.12109,2.5 -2.5,2.5z"/>
  <path id="svg_3" fill="#ffffff" d="m19.5,1l-6,0c-0.27637,0 -0.5,0.22363 -0.5,0.5l0,21c0,0.27637 0.22363,0.5 0.5,0.5l6,0c1.92969,0 3.5,-1.57031 3.5,-3.5l0,-15c0,-1.92969 -1.57031,-3.5 -3.5,-3.5zm-1.5,15c-1.37891,0 -2.5,-1.12158 -2.5,-2.5s1.12109,-2.5 2.5,-2.5s2.5,1.12158 2.5,2.5s-1.12109,2.5 -2.5,2.5z"/>
 </g>
</svg>
