<svg width="23.999999999999996" height="23.999999999999996" xmlns="http://www.w3.org/2000/svg">
 <title/>

 <g>
  <title>background</title>
  <rect fill="none" id="canvas_background" height="402" width="582" y="-1" x="-1"/>
 </g>
 <g>
  <title>Layer 1</title>
  <path id="svg_1" d="m21,12a8.97194,8.97194 0 0 0 -3.11981,-6.80365a15.05516,15.05516 0 0 0 -3.728,2.7879c0.03284,0.03467 0.06537,0.06366 0.09821,0.09906c2.7901,3.011 5.33295,7.29913 4.90955,9.35388a8.94861,8.94861 0 0 0 1.84005,-5.43719z"/>
  <path id="svg_2" d="m12.44354,5.96655a9.65832,9.65832 0 0 1 4.44046,-1.51941a8.96422,8.96422 0 0 0 -9.31186,-0.27714c0.493,0.42548 2.1275,0.58545 4.11328,1.79962a0.72255,0.72255 0 0 0 0.75812,-0.00307z"/>
  <path id="svg_3" d="m9.875,8.08331c0.03455,-0.03668 0.06946,-0.06793 0.10406,-0.10394a21.35438,21.35438 0 0 0 -2.92938,-2.37213a1.39216,1.39216 0 0 0 -1.12683,-0.23187a8.98253,8.98253 0 0 0 -0.86279,12.3548c-0.77338,-1.91047 1.85803,-6.50397 4.81494,-9.64686z"/>
  <path id="svg_4" d="m12.06287,9.89581l-0.00018,-0.00018l-0.00019,0.00018c-2.97113,2.62989 -7.1076,6.54956 -6.47363,8.41619a8.979,8.979 0 0 0 13.0321,-0.23083c0.36438,-1.96417 -3.56665,-5.50243 -6.5581,-8.18536z"/>
 </g>
</svg>